#!OML:ASF H:\Dans Jumps\Project 1\Capture day 1\Session 1\subject.ASF
:FULLY-SPECIFIED
:DEGREES
144
root 0.762964 16.0737 -15.8643 20.0634 -2.7593 -2.23155
lowerback 17.695 0.47923 -0.125605
upperback 4.57911 0.720612 2.08735
thorax -5.02923 0.349429 2.13301
lowerneck -19.2669 0.00169655 -2.91629
upperneck 4.73434 0.678567 0.246472
head 4.47265 0.28825 0.603628
rclavicle 1.2921e-014 4.57205e-015
rhumerus -28.7825 -15.0373 -73.7642
rradius 25.2683
rwrist 33.8287
rhand -19.3796 -23.6964
rfingers 7.12502
rthumb 6.93871 -53.5627
lclavicle 1.2921e-014 4.57205e-015
lhumerus -27.9206 2.05484 80.073
lradius 18.9737
lwrist 8.00764
lhand -27.6154 -5.38651
lfingers 7.12502
lthumb -1.01447 24.5908
rfemur -54.7961 -1.30783 21.5424
rtibia 56.0868
rfoot -22.2165 -5.29975
rtoes 2.10646
lfemur -54.6791 8.67387 -21.2897
ltibia 56.0857
lfoot -19.5863 11.9237
ltoes -11.5328
145
root 0.76146 16.0024 -15.9227 20.7645 -2.7066 -2.21052
lowerback 18.2784 0.493775 -0.195674
upperback 4.60666 0.732444 2.10428
thorax -5.31155 0.356597 2.18868
lowerneck -19.3783 0.00874475 -2.90152
upperneck 4.14577 0.690886 0.1685
head 4.30483 0.295551 0.576663
rclavicle 2.18663e-015 5.76476e-015
rhumerus -29.5469 -15.1962 -73.3205
rradius 25.1206
rwrist 34.0197
rhand -19.2192 -23.6428
rfingers 7.12502
rthumb 7.0936 -53.5039
lclavicle 2.18663e-015 5.76476e-015
lhumerus -28.6173 2.27337 79.8397
lradius 18.7124
lwrist 7.70444
lhand -27.6879 -5.54801
lfingers 7.12502
lthumb -1.08448 24.429
rfemur -56.4235 -1.25171 21.545
rtibia 57.1669
rfoot -22.4869 -5.57918
rtoes 1.75293
lfemur -56.3066 8.5391 -21.4124
ltibia 57.1477
lfoot -19.9052 12.1769
ltoes -11.9511
146
root 0.759857 15.9287 -15.9798 21.5077 -2.64586 -2.19271
lowerback 18.823 0.507282 -0.25597
upperback 4.62028 0.744081 2.12338
thorax -5.58741 0.363859 2.24133
lowerneck -19.5079 0.014984 -2.87146
upperneck 3.58635 0.700693 0.067347
head 4.14931 0.300223 0.539993
rclavicle 7.7526e-015 -2.38542e-015
rhumerus -30.3424 -15.3635 -72.856
rradius 24.9541
rwrist 34.2513
rhand -19.0522 -23.5525
rfingers 7.12502
rthumb 7.25477 -53.4082
lclavicle 7.7526e-015 -2.38542e-015
lhumerus -29.3402 2.50619 79.6053
lradius 18.4178
lwrist 7.2934
lhand -27.8454 -5.8273
lfingers 7.12502
lthumb -1.23662 24.1489
rfemur -58.0991 -1.20558 21.5547
rtibia 58.253
rfoot -22.7601 -5.88229
rtoes 1.36998
lfemur -57.9848 8.40132 -21.536
ltibia 58.2199
lfoot -20.2321 12.4161
ltoes -12.3461
147
root 0.758231 15.8526 -16.0354 22.2909 -2.57772 -2.18033
lowerback 19.3356 0.52013 -0.306672
upperback 4.62195 0.756366 2.14627
thorax -5.85857 0.371594 2.2926
lowerneck -19.6525 0.019816 -2.83696
upperneck 3.03555 0.707867 -0.0410059
head 3.99895 0.303279 0.500295
rclavicle 1.19271e-015 1.11319e-014
rhumerus -31.159 -15.5399 -72.3742
rradius 24.7696
rwrist 34.5319
rhand -18.8885 -23.4536
rfingers 7.12502
rthumb 7.41275 -53.3037
lclavicle 1.19271e-015 1.11319e-014
lhumerus -30.0753 2.77885 79.3591
lradius 18.0863
lwrist 6.76846
lhand -28.0151 -6.11193
lfingers 7.12502
lthumb -1.40051 23.8632
rfemur -59.7286 -1.16814 21.5747
rtibia 59.0858
rfoot -22.8681 -6.1738
rtoes 1.00296
lfemur -59.619 8.25817 -21.6562
ltibia 59.0368
lfoot -20.3903 12.5831
ltoes -12.714
